<svg width="24" height="24" viewBox="0 0 24 24" fill="none" xmlns="http://www.w3.org/2000/svg">
<rect width="2" height="2" transform="matrix(-4.37114e-08 1 1 4.37114e-08 7 3)" fill="currentColor"/>
<rect width="2" height="2" transform="matrix(-4.37114e-08 1 1 4.37114e-08 5 4)" fill="currentColor"/>
<rect x="19" y="4" width="2" height="2" transform="rotate(90 19 4)" fill="currentColor"/>
<rect x="17" y="3" width="2" height="2" transform="rotate(90 17 3)" fill="currentColor"/>
<rect x="9" y="2" width="6" height="2" fill="currentColor"/>
<rect width="2" height="2" transform="matrix(1.31134e-07 -1 -1 -1.31134e-07 17 10)" fill="currentColor"/>
<rect width="2" height="2" transform="matrix(1.31134e-07 -1 -1 -1.31134e-07 19 9)" fill="currentColor"/>
<rect x="5" y="9" width="2" height="2" transform="rotate(-90 5 9)" fill="currentColor"/>
<rect x="7" y="10" width="2" height="2" transform="rotate(-90 7 10)" fill="currentColor"/>
<rect x="15" y="11" width="6" height="2" transform="rotate(-180 15 11)" fill="currentColor"/>
<rect width="2" height="2" transform="matrix(1.31134e-07 -1 -1 -1.31134e-07 17 14)" fill="currentColor"/>
<rect width="2" height="2" transform="matrix(1.31134e-07 -1 -1 -1.31134e-07 17 18)" fill="currentColor"/>
<rect width="2" height="2" transform="matrix(1.31134e-07 -1 -1 -1.31134e-07 19 13)" fill="currentColor"/>
<rect width="2" height="2" transform="matrix(1.31134e-07 -1 -1 -1.31134e-07 19 17)" fill="currentColor"/>
<rect x="5" y="13" width="2" height="2" transform="rotate(-90 5 13)" fill="currentColor"/>
<rect x="5" y="17" width="2" height="2" transform="rotate(-90 5 17)" fill="currentColor"/>
<rect x="7" y="14" width="2" height="2" transform="rotate(-90 7 14)" fill="currentColor"/>
<rect x="7" y="18" width="2" height="2" transform="rotate(-90 7 18)" fill="currentColor"/>
<rect x="15" y="15" width="6" height="2" transform="rotate(-180 15 15)" fill="currentColor"/>
<rect x="15" y="19" width="6" height="2" transform="rotate(-180 15 19)" fill="currentColor"/>
<rect width="2" height="2" transform="matrix(-4.37114e-08 -1 -1 4.37114e-08 17 22)" fill="currentColor"/>
<rect width="2" height="2" transform="matrix(-4.37114e-08 -1 -1 4.37114e-08 19 21)" fill="currentColor"/>
<rect x="5" y="21" width="2" height="2" transform="rotate(-90 5 21)" fill="currentColor"/>
<rect x="7" y="22" width="2" height="2" transform="rotate(-90 7 22)" fill="currentColor"/>
<rect x="15" y="23" width="6" height="2" transform="rotate(180 15 23)" fill="currentColor"/>
<rect width="13" height="2" transform="matrix(-4.37114e-08 1 1 4.37114e-08 4 6)" fill="currentColor"/>
<rect width="13" height="2" transform="matrix(-4.37114e-08 1 1 4.37114e-08 18 6)" fill="currentColor"/>
</svg>
