<svg width="24" height="24" viewBox="0 0 24 24" fill="none" xmlns="http://www.w3.org/2000/svg">
<rect x="7" y="3" width="18" height="2" transform="rotate(90 7 3)" fill="black"/>
<rect x="9" y="5" width="2" height="2" transform="rotate(90 9 5)" fill="black"/>
<rect x="9" y="12" width="2" height="2" transform="rotate(90 9 12)" fill="black"/>
<rect x="11" y="11" width="2" height="2" transform="rotate(90 11 11)" fill="black"/>
<rect x="13" y="11" width="2" height="2" transform="rotate(90 13 11)" fill="black"/>
<rect x="15" y="12" width="2" height="2" transform="rotate(90 15 12)" fill="black"/>
<rect x="17" y="13" width="2" height="2" transform="rotate(90 17 13)" fill="black"/>
<rect x="11" y="4" width="2" height="2" transform="rotate(90 11 4)" fill="black"/>
<rect x="13" y="4" width="2" height="2" transform="rotate(90 13 4)" fill="black"/>
<rect x="15" y="5" width="2" height="2" transform="rotate(90 15 5)" fill="black"/>
<rect x="17" y="6" width="2" height="2" transform="rotate(90 17 6)" fill="black"/>
<rect x="19" y="5" width="9" height="2" transform="rotate(90 19 5)" fill="black"/>
</svg>
