<svg width="24" height="24" viewBox="0 0 24 24" fill="none" xmlns="http://www.w3.org/2000/svg">
<rect x="11" y="15.5" width="2" height="2" transform="rotate(-90 11 15.5)" fill="currentColor"/>
<rect x="10" y="14.5" width="2" height="2" transform="rotate(-90 10 14.5)" fill="currentColor"/>
<rect x="12" y="14.5" width="2" height="2" transform="rotate(-90 12 14.5)" fill="currentColor"/>
<rect x="13" y="13.5" width="2" height="2" transform="rotate(-90 13 13.5)" fill="currentColor"/>
<rect x="14" y="12.5" width="2" height="2" transform="rotate(-90 14 12.5)" fill="currentColor"/>
<rect x="15" y="11.5" width="2" height="2" transform="rotate(-90 15 11.5)" fill="currentColor"/>
<rect x="9" y="13.5" width="2" height="2" transform="rotate(-90 9 13.5)" fill="currentColor"/>
<rect x="8" y="12.5" width="2" height="2" transform="rotate(-90 8 12.5)" fill="currentColor"/>
<rect x="7" y="11.5" width="2" height="2" transform="rotate(-90 7 11.5)" fill="currentColor"/>
<rect x="16" y="10.5" width="2" height="2" transform="rotate(-90 16 10.5)" fill="currentColor"/>
<rect x="6" y="10.5" width="2" height="2" transform="rotate(-90 6 10.5)" fill="currentColor"/>
</svg>
