<svg width="24" height="24" viewBox="0 0 24 24" fill="none" xmlns="http://www.w3.org/2000/svg">
<rect x="13" y="8.5" width="2" height="2" transform="rotate(90 13 8.5)" fill="currentColor"/>
<rect x="14" y="9.5" width="2" height="2" transform="rotate(90 14 9.5)" fill="currentColor"/>
<rect x="12" y="9.5" width="2" height="2" transform="rotate(90 12 9.5)" fill="currentColor"/>
<rect x="11" y="10.5" width="2" height="2" transform="rotate(90 11 10.5)" fill="currentColor"/>
<rect x="10" y="11.5" width="2" height="2" transform="rotate(90 10 11.5)" fill="currentColor"/>
<rect x="9" y="12.5" width="2" height="2" transform="rotate(90 9 12.5)" fill="currentColor"/>
<rect x="15" y="10.5" width="2" height="2" transform="rotate(90 15 10.5)" fill="currentColor"/>
<rect x="16" y="11.5" width="2" height="2" transform="rotate(90 16 11.5)" fill="currentColor"/>
<rect x="17" y="12.5" width="2" height="2" transform="rotate(90 17 12.5)" fill="currentColor"/>
<rect x="8" y="13.5" width="2" height="2" transform="rotate(90 8 13.5)" fill="currentColor"/>
<rect x="18" y="13.5" width="2" height="2" transform="rotate(90 18 13.5)" fill="currentColor"/>
</svg>
